<svg width="180" height="180" viewBox="0 0 180 180" fill="none" xmlns="http://www.w3.org/2000/svg">
<rect width="180" height="180" rx="28" fill="white"/>
<g clip-path="url(#clip0_2387_655)">
<g style="mix-blend-mode:multiply">
<path fill-rule="evenodd" clip-rule="evenodd" d="M86.2294 99.794C88.5297 101.226 91.1339 101.943 94.0418 101.943C96.1685 101.943 98.0999 101.53 99.836 100.705C100.957 100.173 101.934 99.5134 102.766 98.7271V101.277H112.531V69.0152H102.766V72.2786C101.907 71.4581 100.909 70.7776 99.7709 70.237C98.0782 69.4123 96.1685 69 94.0418 69C91.1339 69 88.5297 69.7161 86.2294 71.1484C83.9725 72.5807 82.1712 74.5338 80.8258 77.0077C79.5237 79.4817 78.8727 82.3029 78.8727 85.4712C78.8727 88.6396 79.5237 91.4608 80.8258 93.9347C82.1712 96.4087 83.9725 98.3618 86.2294 99.794ZM101.203 90.8748C99.9012 92.2637 98.1868 92.9582 96.06 92.9582C94.7146 92.9582 93.4993 92.6326 92.4142 91.9816C91.3292 91.3306 90.4828 90.4408 89.8752 89.3124C89.2675 88.1839 88.9637 86.9035 88.9637 85.4712C88.9637 83.9955 89.2675 82.6935 89.8752 81.565C90.5262 80.4365 91.3726 79.5685 92.4142 78.9609C93.4993 78.3098 94.7363 77.9843 96.1251 77.9843C97.514 77.9843 98.7293 78.3098 99.7709 78.9609C100.856 79.5685 101.681 80.4365 102.245 81.565C102.853 82.6935 103.156 83.9955 103.156 85.4712C103.156 87.6414 102.505 89.4426 101.203 90.8748ZM30.8983 83.2733V101.277H40.8591V81.0598C40.8591 78.8897 40.3383 76.8932 39.2967 75.0703C38.255 73.2474 36.8227 71.7934 34.9998 70.7083C33.2203 69.5799 31.1587 69.0156 28.815 69.0156C26.3844 69.0156 24.1926 69.5365 22.2395 70.5781C21.4003 71.0168 20.6408 71.5392 19.9609 72.1455V69.0152H10V101.277H19.9609V83.2733C19.9609 82.1883 20.1996 81.2334 20.677 80.4088C21.1544 79.5407 21.8055 78.8897 22.6301 78.4557C23.4548 77.9782 24.4096 77.7395 25.4947 77.7395C27.0572 77.7395 28.3375 78.2603 29.3358 79.302C30.3775 80.3003 30.8983 81.624 30.8983 83.2733ZM119.545 69.0152V101.277H129.506V82.8176C129.506 81.7326 129.723 80.8211 130.157 80.0833C130.634 79.3454 131.263 78.7812 132.045 78.3906C132.826 77.9565 133.716 77.7395 134.714 77.7395C136.146 77.7395 137.34 78.1952 138.295 79.1067C139.293 79.9748 139.792 81.2117 139.792 82.8176V101.277H149.753V82.8176C149.753 81.7326 149.97 80.8211 150.404 80.0833C150.881 79.3454 151.511 78.7812 152.292 78.3906C153.073 77.9565 153.963 77.7395 154.961 77.7395C156.393 77.7395 157.587 78.1952 158.542 79.1067C159.54 79.9748 160.039 81.2117 160.039 82.8176V101.277H170V81.7108C170 79.0633 169.436 76.8064 168.307 74.9401C167.222 73.0304 165.725 71.5764 163.815 70.5781C161.949 69.5365 159.8 69.0156 157.37 69.0156C154.896 69.0156 152.661 69.5582 150.664 70.6432C149.368 71.3346 148.234 72.2268 147.263 73.3197C146.357 72.1765 145.256 71.2409 143.959 70.513C142.222 69.5148 140.248 69.0156 138.034 69.0156C135.69 69.0156 133.585 69.5148 131.719 70.513C130.907 70.9283 130.169 71.4257 129.506 72.0053V69.0152H119.545ZM61.1367 110.333L65.2593 99.929L77.6667 69.0152H66.1852L60.9785 86.7751L55.8148 69.0152H44.3333L55.7859 98.3378L50.4619 110.333H61.1367Z" fill="#1A1A1A"/>
</g>
</g>
<defs>
<clipPath id="clip0_2387_655">
<rect width="160" height="42" fill="white" transform="translate(10 69)"/>
</clipPath>
</defs>
</svg>
