<svg width="480" height="160" viewBox="0 0 480 160" fill="none" xmlns="http://www.w3.org/2000/svg">
<rect x="2" y="2" width="476" height="156" rx="22" fill="black"/>
<rect x="2" y="2" width="476" height="156" rx="22" stroke="#A6A6A6" stroke-width="4"/>
<path d="M71.2193 77.8467L32.3584 120.024C32.362 120.031 32.362 120.042 32.3657 120.05C33.5592 124.63 37.6472 128 42.5016 128C44.4433 128 46.2647 127.463 47.8268 126.522L47.9509 126.447L91.6918 100.637L71.2193 77.8467Z" fill="#EA4335"/>
<path d="M110.533 70.6648L110.496 70.6386L91.6114 59.4449L70.3359 78.8053L91.6881 100.633L110.471 89.5511C113.763 87.7296 116 84.1801 116 80.0893C116 76.0209 113.796 72.4899 110.533 70.6648Z" fill="#FBBC04"/>
<path d="M32.3577 39.9732C32.1241 40.8541 32 41.7798 32 42.7353V117.265C32 118.221 32.1241 119.147 32.3613 120.024L72.5544 78.9254L32.3577 39.9732Z" fill="#4285F4"/>
<path d="M71.5066 79.9998L91.6178 59.4375L47.928 33.5341C46.3403 32.56 44.4862 32.0001 42.5042 32.0001C37.6498 32.0001 33.5546 35.378 32.3611 39.9615C32.3611 39.9652 32.3574 39.9689 32.3574 39.9727L71.5066 79.9998Z" fill="#34A853"/>
<path d="M169.945 25.3477V37.4062H174.832V40.6055H169.945V57.1641H166.043V25.3477H169.945ZM146.355 49.3945V28.3711H161.227V31.5352H150.258V46.125C155.197 46.1074 159.117 45.8613 163.477 45.1055L163.934 48.4102C158.994 49.2539 154.723 49.3945 148.992 49.3945H146.355ZM205.172 41.0625V44.1914H192.902V50.0273H188.93V44.1914H176.133V41.0625H205.172ZM179.227 32.5547C179.209 28.5645 183.779 26.0508 190.617 26.0508C197.49 26.0508 202.008 28.5645 202.008 32.5547C202.008 36.5625 197.49 39.041 190.617 39.0234C183.779 39.041 179.209 36.5625 179.227 32.5547ZM179.684 56.4961V47.0742H183.621V53.2969H201.973V56.4961H179.684ZM183.445 32.5547C183.41 34.6641 186.258 35.8945 190.617 35.8945C195.012 35.8945 197.842 34.6641 197.824 32.5547C197.842 30.375 195.012 29.1445 190.617 29.1445C186.258 29.1445 183.41 30.375 183.445 32.5547ZM236.32 50.2031V53.4375H207.281V50.2031H219.797V45.0352H210.727V34.6289H229.008V30.6914H210.656V27.5273H232.875V37.7227H214.629V41.8359H233.613V45.0352H223.664V50.2031H236.32ZM264.199 40.2539V43.3828H241.91V28.125H263.953V31.2891H245.777V40.2539H264.199ZM238.395 53.0859V49.8516H267.434V53.0859H238.395ZM294.398 25.3477V38.0039H299.285V41.2383H294.398V57.1289H290.531V25.3477H294.398ZM269.332 33.3633V30.2344H276.855V25.8047H280.758V30.2344H288.07V33.3633H269.332ZM270.809 42.9258C270.773 38.5312 274.184 35.4199 278.824 35.4375C283.395 35.4199 286.787 38.5312 286.805 42.9258C286.787 47.3027 283.395 50.3789 278.824 50.3789C274.184 50.3789 270.773 47.3027 270.809 42.9258ZM274.535 42.9258C274.518 45.5098 276.328 47.1621 278.824 47.1445C281.268 47.1621 283.043 45.5098 283.078 42.9258C283.043 40.3418 281.268 38.6367 278.824 38.6367C276.328 38.6367 274.518 40.3418 274.535 42.9258ZM327.164 25.3477V57.1289H323.227V25.3477H327.164ZM300.832 48.375C309.164 44.4199 312.996 39.041 313.699 31.8164H302.449V28.7227H317.672C317.672 38.1797 313.998 46.2129 302.871 51.5039L300.832 48.375Z" fill="white"/>
<path d="M374.072 120.639H380.588V76.5926H374.072V120.639ZM432.755 92.4585L425.287 111.555H425.063L417.312 92.4585H410.294L421.917 119.148L415.294 133.996H422.085L440 92.4585H432.755ZM395.807 115.635C393.671 115.635 390.696 114.561 390.696 111.894C390.696 108.497 394.4 107.193 397.602 107.193C400.465 107.193 401.816 107.817 403.555 108.666C403.049 112.746 399.568 115.635 395.807 115.635ZM396.593 91.4966C391.876 91.4966 386.988 93.593 384.97 98.2404L390.752 100.675C391.988 98.2404 394.289 97.4441 396.705 97.4441C400.074 97.4441 403.499 99.4841 403.555 103.113V103.564C402.375 102.884 399.851 101.866 396.761 101.866C390.528 101.866 384.181 105.322 384.181 111.781C384.181 117.675 389.292 121.474 395.018 121.474C399.4 121.474 401.816 119.49 403.332 117.165H403.555V120.565H409.843V103.677C409.843 95.8585 404.061 91.4966 396.593 91.4966M356.328 97.8211H347.062V82.7233H356.328C361.199 82.7233 363.964 86.7928 363.964 90.2704C363.964 93.6846 361.199 97.8211 356.328 97.8211ZM356.161 76.5926H340.55V120.639H347.062V103.952H356.161C363.381 103.952 370.48 98.6737 370.48 90.2704C370.48 81.8671 363.381 76.5926 356.161 76.5926M271.033 115.642C266.533 115.642 262.765 111.841 262.765 106.619C262.765 101.341 266.533 97.4793 271.033 97.4793C275.478 97.4793 278.963 101.341 278.963 106.619C278.963 111.841 275.478 115.642 271.033 115.642ZM278.516 94.9248H278.289C276.826 93.1667 274.015 91.5776 270.471 91.5776C263.045 91.5776 256.24 98.1593 256.24 106.619C256.24 115.019 263.045 121.548 270.471 121.548C274.015 121.548 276.826 119.959 278.289 118.141H278.516V120.3C278.516 126.033 275.478 129.098 270.583 129.098C266.588 129.098 264.113 126.202 263.1 123.76L257.42 126.146C259.05 130.12 263.383 135 270.583 135C278.233 135 284.703 130.458 284.703 119.391V92.4831H278.516V94.9248ZM289.203 120.639H295.729V76.5891H289.203V120.639ZM305.345 106.108C305.177 100.319 309.789 97.3665 313.106 97.3665C315.697 97.3665 317.89 98.6702 318.62 100.545L305.345 106.108ZM325.596 101.112C324.36 97.7647 320.589 91.5776 312.883 91.5776C305.233 91.5776 298.878 97.6484 298.878 106.563C298.878 114.962 305.177 121.548 313.613 121.548C320.421 121.548 324.36 117.348 325.99 114.906L320.928 111.499C319.241 113.997 316.933 115.642 313.613 115.642C310.296 115.642 307.932 114.11 306.413 111.104L326.27 102.814L325.596 101.112ZM167.4 96.1756V102.532H182.473C182.023 106.108 180.843 108.719 179.045 110.533C176.849 112.75 173.416 115.191 167.4 115.191C158.116 115.191 150.861 107.641 150.861 98.2756C150.861 88.9069 158.116 81.3597 167.4 81.3597C172.407 81.3597 176.063 83.3469 178.762 85.9014L183.207 81.4161C179.436 77.7835 174.432 75 167.4 75C154.688 75 144 85.4469 144 98.2756C144 111.104 154.688 121.548 167.4 121.548C174.261 121.548 179.436 119.275 183.486 115.019C187.651 110.819 188.943 104.917 188.943 100.147C188.943 98.6702 188.832 97.3102 188.605 96.1756H167.4ZM206.083 115.642C201.583 115.642 197.7 111.897 197.7 106.563C197.7 101.168 201.583 97.4793 206.083 97.4793C210.58 97.4793 214.463 101.168 214.463 106.563C214.463 111.897 210.58 115.642 206.083 115.642ZM206.083 91.5776C197.868 91.5776 191.174 97.8774 191.174 106.563C191.174 115.191 197.868 121.548 206.083 121.548C214.295 121.548 220.989 115.191 220.989 106.563C220.989 97.8774 214.295 91.5776 206.083 91.5776ZM238.6 115.642C234.1 115.642 230.217 111.897 230.217 106.563C230.217 101.168 234.1 97.4793 238.6 97.4793C243.101 97.4793 246.98 101.168 246.98 106.563C246.98 111.897 243.101 115.642 238.6 115.642ZM238.6 91.5776C230.388 91.5776 223.695 97.8774 223.695 106.563C223.695 115.191 230.388 121.548 238.6 121.548C246.812 121.548 253.506 115.191 253.506 106.563C253.506 97.8774 246.812 91.5776 238.6 91.5776Z" fill="white"/>
</svg>
