<svg width="480" height="160" viewBox="0 0 480 160" fill="none" xmlns="http://www.w3.org/2000/svg">
<rect x="2" y="2" width="476" height="156" rx="22" fill="black"/>
<rect x="2" y="2" width="476" height="156" rx="22" stroke="#A6A6A6" stroke-width="4"/>
<path d="M98.818 83.0529C98.8666 79.3733 99.8677 75.7654 101.728 72.5651C103.589 69.3647 106.248 66.6758 109.459 64.7485C107.419 61.9043 104.728 59.5636 101.6 57.9124C98.4713 56.2612 94.9916 55.3449 91.4369 55.2363C83.8542 54.4592 76.5031 59.6661 72.639 59.6661C68.7002 59.6661 62.751 55.3134 56.3446 55.4421C52.2008 55.5728 48.1624 56.7493 44.6227 58.8568C41.0831 60.9643 38.163 63.9311 36.1469 67.468C27.4141 82.2295 33.928 103.924 42.2935 115.856C46.479 121.699 51.3706 128.226 57.7712 127.994C64.0345 127.741 66.3738 124.095 73.9341 124.095C81.4244 124.095 83.619 127.994 90.1495 127.847C96.8704 127.741 101.105 121.978 105.144 116.08C108.151 111.917 110.465 107.316 112 102.447C108.095 100.835 104.763 98.1357 102.419 94.6869C100.075 91.2381 98.8225 87.192 98.818 83.0529Z" fill="white"/>
<path d="M86.4832 47.3885C90.1477 43.0937 91.9531 37.5734 91.5159 32C85.9174 32.5741 80.7459 35.1864 77.0319 39.3164C75.216 41.3341 73.8252 43.6813 72.9391 46.224C72.0529 48.7667 71.6888 51.455 71.8674 54.1352C74.6677 54.1634 77.438 53.5708 79.9697 52.4021C82.5014 51.2335 84.7284 49.5193 86.4832 47.3885Z" fill="white"/>
<path d="M146.078 55V32.4531H154.031C156.271 32.4531 158.182 32.8958 159.766 33.7812C161.359 34.6562 162.578 35.9271 163.422 37.5938C164.276 39.2604 164.703 41.2812 164.703 43.6562V43.6875C164.703 46.0625 164.281 48.099 163.438 49.7969C162.594 51.4844 161.375 52.776 159.781 53.6719C158.198 54.5573 156.281 55 154.031 55H146.078ZM149.578 51.9688H153.703C155.297 51.9688 156.646 51.651 157.75 51.0156C158.854 50.3802 159.693 49.4479 160.266 48.2188C160.839 46.9896 161.125 45.4896 161.125 43.7188V43.6875C161.125 41.9271 160.833 40.4375 160.25 39.2188C159.677 37.9896 158.839 37.0625 157.734 36.4375C156.641 35.8021 155.297 35.4844 153.703 35.4844H149.578V51.9688ZM174.719 55.3281C173.146 55.3281 171.771 54.9844 170.594 54.2969C169.427 53.599 168.521 52.6146 167.875 51.3438C167.229 50.0625 166.906 48.5417 166.906 46.7812V46.75C166.906 45 167.229 43.4896 167.875 42.2188C168.531 40.9479 169.443 39.9688 170.609 39.2812C171.786 38.5938 173.151 38.25 174.703 38.25C176.266 38.25 177.63 38.5938 178.797 39.2812C179.974 39.9583 180.885 40.9323 181.531 42.2031C182.188 43.474 182.516 44.9896 182.516 46.75V46.7812C182.516 48.5521 182.188 50.0729 181.531 51.3438C180.885 52.6146 179.979 53.599 178.812 54.2969C177.646 54.9844 176.281 55.3281 174.719 55.3281ZM174.734 52.4844C175.609 52.4844 176.37 52.2604 177.016 51.8125C177.661 51.3646 178.161 50.7188 178.516 49.875C178.87 49.0208 179.047 47.9896 179.047 46.7812V46.75C179.047 45.5521 178.87 44.5312 178.516 43.6875C178.161 42.8333 177.656 42.1875 177 41.75C176.344 41.3021 175.578 41.0781 174.703 41.0781C173.839 41.0781 173.078 41.3021 172.422 41.75C171.776 42.1979 171.271 42.8438 170.906 43.6875C170.542 44.5312 170.359 45.5521 170.359 46.75V46.7812C170.359 47.9896 170.536 49.0208 170.891 49.875C171.255 50.7188 171.766 51.3646 172.422 51.8125C173.078 52.2604 173.849 52.4844 174.734 52.4844ZM188.297 55L183.797 38.5625H187.188L190.172 51.5H190.25L193.656 38.5625H196.922L200.359 51.5H200.438L203.422 38.5625H206.781L202.281 55H198.75L195.312 42.6875H195.234L191.812 55H188.297ZM208.844 55V38.5625H212.25V41.0469H212.312C212.75 40.2135 213.391 39.5417 214.234 39.0312C215.078 38.5104 216.12 38.25 217.359 38.25C219.161 38.25 220.557 38.7969 221.547 39.8906C222.536 40.974 223.031 42.4635 223.031 44.3594V55H219.641V45.0156C219.641 43.776 219.349 42.8229 218.766 42.1562C218.193 41.4896 217.323 41.1562 216.156 41.1562C215.365 41.1562 214.672 41.3333 214.078 41.6875C213.495 42.0417 213.042 42.5365 212.719 43.1719C212.406 43.8073 212.25 44.5573 212.25 45.4219V55H208.844ZM226.422 55V32.4531H229.812V55H226.422ZM240.375 55.3281C238.802 55.3281 237.427 54.9844 236.25 54.2969C235.083 53.599 234.177 52.6146 233.531 51.3438C232.885 50.0625 232.562 48.5417 232.562 46.7812V46.75C232.562 45 232.885 43.4896 233.531 42.2188C234.188 40.9479 235.099 39.9688 236.266 39.2812C237.443 38.5938 238.807 38.25 240.359 38.25C241.922 38.25 243.286 38.5938 244.453 39.2812C245.63 39.9583 246.542 40.9323 247.188 42.2031C247.844 43.474 248.172 44.9896 248.172 46.75V46.7812C248.172 48.5521 247.844 50.0729 247.188 51.3438C246.542 52.6146 245.635 53.599 244.469 54.2969C243.302 54.9844 241.938 55.3281 240.375 55.3281ZM240.391 52.4844C241.266 52.4844 242.026 52.2604 242.672 51.8125C243.318 51.3646 243.818 50.7188 244.172 49.875C244.526 49.0208 244.703 47.9896 244.703 46.7812V46.75C244.703 45.5521 244.526 44.5312 244.172 43.6875C243.818 42.8333 243.312 42.1875 242.656 41.75C242 41.3021 241.234 41.0781 240.359 41.0781C239.495 41.0781 238.734 41.3021 238.078 41.75C237.432 42.1979 236.927 42.8438 236.562 43.6875C236.198 44.5312 236.016 45.5521 236.016 46.75V46.7812C236.016 47.9896 236.193 49.0208 236.547 49.875C236.911 50.7188 237.422 51.3646 238.078 51.8125C238.734 52.2604 239.505 52.4844 240.391 52.4844ZM255.625 55.2969C254.531 55.2969 253.573 55.0885 252.75 54.6719C251.927 54.2552 251.286 53.6719 250.828 52.9219C250.37 52.1719 250.141 51.3073 250.141 50.3281V50.2969C250.141 49.3385 250.38 48.5156 250.859 47.8281C251.339 47.1302 252.031 46.5781 252.938 46.1719C253.854 45.7656 254.958 45.526 256.25 45.4531L262.469 45.0781V47.4531L256.703 47.8125C255.693 47.875 254.911 48.1198 254.359 48.5469C253.818 48.9635 253.547 49.5208 253.547 50.2188V50.25C253.547 50.9688 253.818 51.5365 254.359 51.9531C254.911 52.3698 255.641 52.5781 256.547 52.5781C257.339 52.5781 258.047 52.4167 258.672 52.0938C259.307 51.7708 259.807 51.3281 260.172 50.7656C260.536 50.1927 260.719 49.5521 260.719 48.8438V43.9531C260.719 43.0469 260.438 42.3385 259.875 41.8281C259.312 41.3073 258.505 41.0469 257.453 41.0469C256.484 41.0469 255.703 41.2552 255.109 41.6719C254.526 42.0885 254.161 42.625 254.016 43.2812L253.984 43.4219H250.797L250.812 43.25C250.896 42.3021 251.214 41.4531 251.766 40.7031C252.318 39.9427 253.083 39.3438 254.062 38.9062C255.042 38.4688 256.203 38.25 257.547 38.25C258.891 38.25 260.052 38.474 261.031 38.9219C262.01 39.3698 262.771 40 263.312 40.8125C263.854 41.625 264.125 42.5781 264.125 43.6719V55H260.719V52.4062H260.656C260.333 53 259.917 53.5156 259.406 53.9531C258.896 54.3802 258.318 54.7135 257.672 54.9531C257.036 55.1823 256.354 55.2969 255.625 55.2969ZM273.531 55.3281C272.135 55.3281 270.922 54.9792 269.891 54.2812C268.859 53.5833 268.062 52.599 267.5 51.3281C266.938 50.0469 266.656 48.5312 266.656 46.7812V46.7656C266.656 45.0156 266.938 43.5052 267.5 42.2344C268.073 40.9635 268.87 39.9844 269.891 39.2969C270.922 38.599 272.125 38.25 273.5 38.25C274.271 38.25 274.99 38.375 275.656 38.625C276.323 38.875 276.911 39.2344 277.422 39.7031C277.943 40.1615 278.365 40.7135 278.688 41.3594H278.75V32.4531H282.156V55H278.75V52.2188H278.688C278.365 52.8646 277.948 53.4167 277.438 53.875C276.938 54.3333 276.359 54.6927 275.703 54.9531C275.047 55.2031 274.323 55.3281 273.531 55.3281ZM274.422 52.4062C275.276 52.4062 276.026 52.1771 276.672 51.7188C277.328 51.25 277.839 50.5938 278.203 49.75C278.578 48.9062 278.766 47.9167 278.766 46.7812V46.7656C278.766 45.6302 278.578 44.6458 278.203 43.8125C277.828 42.9688 277.318 42.3177 276.672 41.8594C276.026 41.3906 275.276 41.1562 274.422 41.1562C273.536 41.1562 272.771 41.3854 272.125 41.8438C271.479 42.2917 270.979 42.9375 270.625 43.7812C270.281 44.6146 270.109 45.6094 270.109 46.7656V46.7812C270.109 47.9375 270.281 48.9427 270.625 49.7969C270.979 50.6406 271.479 51.2865 272.125 51.7344C272.771 52.1823 273.536 52.4062 274.422 52.4062ZM299.156 55.3281C297.583 55.3281 296.208 54.9844 295.031 54.2969C293.865 53.599 292.958 52.6146 292.312 51.3438C291.667 50.0625 291.344 48.5417 291.344 46.7812V46.75C291.344 45 291.667 43.4896 292.312 42.2188C292.969 40.9479 293.88 39.9688 295.047 39.2812C296.224 38.5938 297.589 38.25 299.141 38.25C300.703 38.25 302.068 38.5938 303.234 39.2812C304.411 39.9583 305.323 40.9323 305.969 42.2031C306.625 43.474 306.953 44.9896 306.953 46.75V46.7812C306.953 48.5521 306.625 50.0729 305.969 51.3438C305.323 52.6146 304.417 53.599 303.25 54.2969C302.083 54.9844 300.719 55.3281 299.156 55.3281ZM299.172 52.4844C300.047 52.4844 300.807 52.2604 301.453 51.8125C302.099 51.3646 302.599 50.7188 302.953 49.875C303.307 49.0208 303.484 47.9896 303.484 46.7812V46.75C303.484 45.5521 303.307 44.5312 302.953 43.6875C302.599 42.8333 302.094 42.1875 301.438 41.75C300.781 41.3021 300.016 41.0781 299.141 41.0781C298.276 41.0781 297.516 41.3021 296.859 41.75C296.214 42.1979 295.708 42.8438 295.344 43.6875C294.979 44.5312 294.797 45.5521 294.797 46.75V46.7812C294.797 47.9896 294.974 49.0208 295.328 49.875C295.693 50.7188 296.203 51.3646 296.859 51.8125C297.516 52.2604 298.286 52.4844 299.172 52.4844ZM309.562 55V38.5625H312.969V41.0469H313.031C313.469 40.2135 314.109 39.5417 314.953 39.0312C315.797 38.5104 316.839 38.25 318.078 38.25C319.88 38.25 321.276 38.7969 322.266 39.8906C323.255 40.974 323.75 42.4635 323.75 44.3594V55H320.359V45.0156C320.359 43.776 320.068 42.8229 319.484 42.1562C318.911 41.4896 318.042 41.1562 316.875 41.1562C316.083 41.1562 315.391 41.3333 314.797 41.6875C314.214 42.0417 313.76 42.5365 313.438 43.1719C313.125 43.8073 312.969 44.5573 312.969 45.4219V55H309.562ZM339.266 55.3281C337.641 55.3281 336.427 54.9635 335.625 54.2344C334.833 53.4948 334.438 52.3021 334.438 50.6562V41.25H332.078V38.5625H334.438V34.2812H337.906V38.5625H340.984V41.25H337.906V50.4688C337.906 51.3021 338.089 51.875 338.453 52.1875C338.818 52.4896 339.359 52.6406 340.078 52.6406C340.255 52.6406 340.417 52.6354 340.562 52.625C340.719 52.6042 340.859 52.5885 340.984 52.5781V55.1875C340.786 55.2188 340.536 55.25 340.234 55.2812C339.932 55.3125 339.609 55.3281 339.266 55.3281ZM343.891 55V32.4531H347.281V41.2656H347.359C347.786 40.3073 348.432 39.5677 349.297 39.0469C350.172 38.5156 351.224 38.25 352.453 38.25C353.63 38.25 354.651 38.526 355.516 39.0781C356.391 39.6198 357.068 40.3854 357.547 41.375C358.036 42.3646 358.281 43.5208 358.281 44.8438V55H354.891V45.4844C354.891 44.1198 354.562 43.0573 353.906 42.2969C353.25 41.5365 352.328 41.1562 351.141 41.1562C350.37 41.1562 349.693 41.3385 349.109 41.7031C348.536 42.0677 348.089 42.5729 347.766 43.2188C347.443 43.8646 347.281 44.6198 347.281 45.4844V55H343.891ZM368.562 55.3281C366.958 55.3281 365.573 54.9844 364.406 54.2969C363.25 53.599 362.359 52.6146 361.734 51.3438C361.12 50.0625 360.812 48.5573 360.812 46.8281V46.8125C360.812 45.1042 361.125 43.6094 361.75 42.3281C362.375 41.0365 363.255 40.0365 364.391 39.3281C365.526 38.6094 366.859 38.25 368.391 38.25C369.932 38.25 371.255 38.5938 372.359 39.2812C373.474 39.9583 374.333 40.9219 374.938 42.1719C375.542 43.4115 375.844 44.8542 375.844 46.5V47.6406H362.484V45.25H374.203L372.531 47.4844V46.1719C372.531 45.0156 372.354 44.0573 372 43.2969C371.656 42.526 371.172 41.9531 370.547 41.5781C369.932 41.2031 369.219 41.0156 368.406 41.0156C367.604 41.0156 366.885 41.2135 366.25 41.6094C365.615 42.0052 365.115 42.5885 364.75 43.3594C364.385 44.1198 364.203 45.0573 364.203 46.1719V47.4844C364.203 48.5469 364.38 49.4583 364.734 50.2188C365.099 50.9688 365.615 51.5469 366.281 51.9531C366.948 52.349 367.734 52.5469 368.641 52.5469C369.307 52.5469 369.896 52.4479 370.406 52.25C370.917 52.0417 371.339 51.7708 371.672 51.4375C372.016 51.0938 372.255 50.7135 372.391 50.2969L372.438 50.1719H375.656L375.625 50.3438C375.49 50.9896 375.234 51.6094 374.859 52.2031C374.484 52.7969 373.995 53.3333 373.391 53.8125C372.797 54.2812 372.094 54.651 371.281 54.9219C370.469 55.1927 369.562 55.3281 368.562 55.3281Z" fill="white"/>
<path d="M152.824 125H144.703L161.227 77.0117H170.156L186.645 125H178.207L173.953 111.711H157.113L152.824 125ZM165.727 85.3086H165.41L158.906 105.594H172.16L165.727 85.3086ZM209.057 125.527C204.241 125.527 200.585 123.242 198.616 119.832H198.335V137.34H190.53V87.8398H198.124V93.2891H198.405C200.444 89.7383 204.241 87.3477 209.233 87.3477C217.565 87.3477 223.507 93.6406 223.507 104.75V108.055C223.507 119.094 217.636 125.527 209.057 125.527ZM207.265 119.094C212.222 119.094 215.597 115.121 215.597 107.633V105.031C215.597 97.8242 212.432 93.7109 207.124 93.7109C201.675 93.7109 198.265 98.1406 198.265 104.996V107.633C198.265 114.664 201.71 119.094 207.265 119.094ZM248.732 125.527C243.916 125.527 240.26 123.242 238.291 119.832H238.01V137.34H230.205V87.8398H237.799V93.2891H238.08C240.119 89.7383 243.916 87.3477 248.908 87.3477C257.24 87.3477 263.181 93.6406 263.181 104.75V108.055C263.181 119.094 257.31 125.527 248.732 125.527ZM246.939 119.094C251.896 119.094 255.271 115.121 255.271 107.633V105.031C255.271 97.8242 252.107 93.7109 246.799 93.7109C241.349 93.7109 237.939 98.1406 237.939 104.996V107.633C237.939 114.664 241.385 119.094 246.939 119.094ZM279.355 111.676H287.16C287.511 115.824 291.167 119.375 297.953 119.375C304.175 119.375 307.867 116.457 307.867 111.922C307.867 108.266 305.406 106.297 300.273 105.066L292.398 103.098C286.21 101.656 280.656 97.9648 280.656 90.1602C280.656 80.9844 288.671 75.957 297.988 75.957C307.304 75.957 315.074 80.9844 315.25 89.9492H307.585C307.234 85.8711 304.105 82.4961 297.882 82.4961C292.398 82.4961 288.671 85.0977 288.671 89.5625C288.671 92.6914 290.851 94.9414 295.316 95.9609L303.156 97.8945C310.363 99.6523 315.847 103.062 315.847 111.219C315.847 120.641 308.218 125.949 297.355 125.949C283.996 125.949 279.531 118.145 279.355 111.676ZM325.358 87.8398V78.8047H333.022V87.8398H340.264V94.0977H333.022V113.926C333.022 117.969 334.534 119.094 338.717 119.094C339.385 119.094 340.018 119.094 340.475 119.023V125C339.842 125.105 338.366 125.246 336.784 125.246C327.748 125.246 325.252 122.012 325.252 114.559V94.0977H320.12V87.8398H325.358ZM361.341 87.207C372.029 87.207 377.829 94.7305 377.829 104.855V107.844C377.829 118.32 372.064 125.633 361.341 125.633C350.618 125.633 344.783 118.32 344.783 107.844V104.855C344.783 94.7656 350.654 87.207 361.341 87.207ZM361.341 93.4648C355.54 93.4648 352.658 98.2109 352.658 104.961V107.809C352.658 114.453 355.505 119.34 361.341 119.34C367.177 119.34 369.99 114.488 369.99 107.809V104.961C369.99 98.1758 367.142 93.4648 361.341 93.4648ZM384.422 125V87.8398H392.227V92.7266H392.508C393.457 90.4062 396.235 87.3125 401.402 87.3125C402.422 87.3125 403.301 87.3828 404.039 87.5234V94.4141C403.371 94.2383 402 94.1328 400.699 94.1328C394.442 94.1328 392.332 98 392.332 102.992V125H384.422ZM422.972 125.633C413.022 125.633 406.694 119.059 406.694 108.055V104.293C406.694 93.9219 412.882 87.207 422.655 87.207C432.569 87.207 438.546 94.168 438.546 104.645V108.195H414.394V109.074C414.394 115.332 417.769 119.48 423.077 119.48C427.05 119.48 429.757 117.512 430.706 114.312H438.124C436.999 120.324 432.147 125.633 422.972 125.633ZM414.394 102.746H430.917V102.676C430.917 97.4023 427.647 93.2539 422.69 93.2539C417.663 93.2539 414.394 97.4023 414.394 102.676V102.746Z" fill="white"/>
</svg>
