<svg width="480" height="160" viewBox="0 0 480 160" fill="none" xmlns="http://www.w3.org/2000/svg">
<rect x="2" y="2" width="476" height="156" rx="22" fill="black"/>
<rect x="2" y="2" width="476" height="156" rx="22" stroke="#A6A6A6" stroke-width="4"/>
<path d="M71.2193 77.8467L32.3584 120.024C32.362 120.031 32.362 120.042 32.3657 120.05C33.5592 124.63 37.6472 128 42.5016 128C44.4433 128 46.2647 127.463 47.8268 126.522L47.9509 126.447L91.6918 100.637L71.2193 77.8467Z" fill="#EA4335"/>
<path d="M110.533 70.6648L110.496 70.6386L91.6114 59.4449L70.3359 78.8053L91.6881 100.633L110.471 89.5511C113.763 87.7296 116 84.1801 116 80.0893C116 76.0209 113.796 72.4899 110.533 70.6648Z" fill="#FBBC04"/>
<path d="M32.3577 39.9732C32.1241 40.8541 32 41.7798 32 42.7353V117.265C32 118.221 32.1241 119.147 32.3613 120.024L72.5544 78.9254L32.3577 39.9732Z" fill="#4285F4"/>
<path d="M71.5066 79.9998L91.6178 59.4375L47.928 33.5341C46.3403 32.56 44.4862 32.0001 42.5042 32.0001C37.6498 32.0001 33.5546 35.378 32.3611 39.9615C32.3611 39.9652 32.3574 39.9689 32.3574 39.9727L71.5066 79.9998Z" fill="#34A853"/>
<path d="M155.781 50.375C154.167 50.375 152.708 50.1042 151.406 49.5625C150.115 49.0208 149.01 48.2396 148.094 47.2188C147.188 46.1979 146.49 44.9635 146 43.5156C145.51 42.0677 145.266 40.4375 145.266 38.625V38.6094C145.266 36.2344 145.693 34.1875 146.547 32.4688C147.401 30.75 148.615 29.4219 150.188 28.4844C151.76 27.5469 153.615 27.0781 155.75 27.0781C157.5 27.0781 159.031 27.3906 160.344 28.0156C161.656 28.6302 162.729 29.474 163.562 30.5469C164.396 31.6198 164.969 32.8385 165.281 34.2031L165.344 34.4688H161.734L161.672 34.2969C161.203 32.9948 160.464 31.9844 159.453 31.2656C158.453 30.5469 157.219 30.1875 155.75 30.1875C154.323 30.1875 153.089 30.5208 152.047 31.1875C151.016 31.8542 150.224 32.8177 149.672 34.0781C149.12 35.3281 148.844 36.8333 148.844 38.5938V38.6094C148.844 39.9531 149.005 41.1615 149.328 42.2344C149.651 43.2969 150.115 44.2031 150.719 44.9531C151.333 45.7031 152.068 46.276 152.922 46.6719C153.776 47.0677 154.74 47.2656 155.812 47.2656C157.031 47.2656 158.104 47.026 159.031 46.5469C159.969 46.0677 160.698 45.401 161.219 44.5469C161.75 43.6823 162.021 42.6823 162.031 41.5469V41.1719H156.125V38.3125H165.5V40.625C165.5 42.1458 165.281 43.5104 164.844 44.7188C164.406 45.9271 163.766 46.9531 162.922 47.7969C162.089 48.6406 161.068 49.2812 159.859 49.7188C158.661 50.1562 157.302 50.375 155.781 50.375ZM168.922 50V27.4531H183.234V30.4844H172.422V37.0469H182.656V39.9844H172.422V46.9688H183.234V50H168.922ZM192.438 50V30.4844H185.547V27.4531H202.844V30.4844H195.953V50H192.438ZM212.172 50V27.4531H215.672V50H212.172ZM225.406 50V30.4844H218.516V27.4531H235.812V30.4844H228.922V50H225.406ZM254.906 50.375C252.729 50.375 250.849 49.9062 249.266 48.9688C247.682 48.0208 246.464 46.6771 245.609 44.9375C244.755 43.1875 244.328 41.1198 244.328 38.7344V38.7031C244.328 36.3177 244.755 34.2552 245.609 32.5156C246.474 30.776 247.698 29.4375 249.281 28.5C250.865 27.5521 252.74 27.0781 254.906 27.0781C257.062 27.0781 258.932 27.5521 260.516 28.5C262.099 29.4479 263.318 30.7917 264.172 32.5312C265.026 34.2604 265.453 36.3177 265.453 38.7031V38.7344C265.453 41.1198 265.026 43.1823 264.172 44.9219C263.318 46.6615 262.099 48.0052 260.516 48.9531C258.943 49.901 257.073 50.375 254.906 50.375ZM254.906 47.2656C256.344 47.2656 257.583 46.9167 258.625 46.2188C259.667 45.5208 260.469 44.5312 261.031 43.25C261.594 41.9688 261.875 40.4635 261.875 38.7344V38.7031C261.875 36.9635 261.589 35.4583 261.016 34.1875C260.453 32.9062 259.646 31.9219 258.594 31.2344C257.552 30.5365 256.323 30.1875 254.906 30.1875C253.479 30.1875 252.24 30.5312 251.188 31.2188C250.146 31.9062 249.339 32.8906 248.766 34.1719C248.193 35.4427 247.906 36.9531 247.906 38.7031V38.7344C247.906 40.474 248.193 41.9844 248.766 43.2656C249.339 44.5469 250.146 45.5365 251.188 46.2344C252.229 46.9219 253.469 47.2656 254.906 47.2656ZM268.797 50V27.4531H272.031L285.906 47.375L282.203 44.0938H283.719V27.4531H287.203V50H283.969L270.094 30.0469L273.797 33.3125H272.281V50H268.797Z" fill="white"/>
<path d="M374.072 115.639H380.588V71.5926H374.072V115.639ZM432.755 87.4585L425.287 106.555H425.063L417.312 87.4585H410.294L421.917 114.148L415.294 128.996H422.085L440 87.4585H432.755ZM395.807 110.635C393.671 110.635 390.696 109.561 390.696 106.894C390.696 103.497 394.4 102.193 397.602 102.193C400.465 102.193 401.816 102.817 403.555 103.666C403.049 107.746 399.568 110.635 395.807 110.635ZM396.593 86.4966C391.876 86.4966 386.988 88.593 384.97 93.2403L390.752 95.675C391.988 93.2403 394.289 92.4441 396.705 92.4441C400.074 92.4441 403.499 94.4841 403.555 98.1132V98.5642C402.375 97.8842 399.851 96.8659 396.761 96.8659C390.528 96.8659 384.181 100.322 384.181 106.781C384.181 112.675 389.292 116.474 395.018 116.474C399.4 116.474 401.816 114.49 403.332 112.165H403.555V115.565H409.843V98.677C409.843 90.8585 404.061 86.4966 396.593 86.4966ZM356.328 92.8211H347.062V77.7233H356.328C361.199 77.7233 363.964 81.7928 363.964 85.2704C363.964 88.6846 361.199 92.8211 356.328 92.8211ZM356.161 71.5926H340.55V115.639H347.062V98.9518H356.161C363.381 98.9518 370.48 93.6737 370.48 85.2704C370.48 76.8671 363.381 71.5926 356.161 71.5926ZM271.033 110.642C266.533 110.642 262.765 106.841 262.765 101.619C262.765 96.3409 266.533 92.4793 271.033 92.4793C275.478 92.4793 278.963 96.3409 278.963 101.619C278.963 106.841 275.478 110.642 271.033 110.642ZM278.516 89.9248H278.289C276.826 88.1667 274.015 86.5776 270.471 86.5776C263.045 86.5776 256.24 93.1593 256.24 101.619C256.24 110.019 263.045 116.548 270.471 116.548C274.015 116.548 276.826 114.959 278.289 113.141H278.516V115.3C278.516 121.033 275.478 124.098 270.583 124.098C266.588 124.098 264.113 121.202 263.1 118.76L257.42 121.146C259.05 125.12 263.383 130 270.583 130C278.233 130 284.703 125.458 284.703 114.391V87.4831H278.516V89.9248ZM289.203 115.639H295.729V71.5891H289.203V115.639ZM305.345 101.108C305.177 95.3192 309.789 92.3666 313.106 92.3666C315.697 92.3666 317.89 93.6702 318.62 95.5447L305.345 101.108ZM325.596 96.1119C324.36 92.7647 320.589 86.5776 312.883 86.5776C305.233 86.5776 298.878 92.6484 298.878 101.563C298.878 109.962 305.177 116.548 313.613 116.548C320.421 116.548 324.36 112.348 325.99 109.906L320.928 106.499C319.241 108.997 316.933 110.642 313.613 110.642C310.296 110.642 307.932 109.11 306.413 106.104L326.27 97.8137L325.596 96.1119ZM167.4 91.1756V97.5319H182.473C182.023 101.108 180.843 103.719 179.045 105.533C176.849 107.75 173.416 110.191 167.4 110.191C158.116 110.191 150.861 102.641 150.861 93.2756C150.861 83.9069 158.116 76.3597 167.4 76.3597C172.407 76.3597 176.063 78.3469 178.762 80.9014L183.207 76.4161C179.436 72.7835 174.432 70 167.4 70C154.688 70 144 80.4469 144 93.2756C144 106.104 154.688 116.548 167.4 116.548C174.261 116.548 179.436 114.275 183.486 110.019C187.651 105.819 188.943 99.9172 188.943 95.1465C188.943 93.6702 188.832 92.3102 188.605 91.1756H167.4ZM206.083 110.642C201.583 110.642 197.7 106.897 197.7 101.563C197.7 96.1683 201.583 92.4793 206.083 92.4793C210.58 92.4793 214.463 96.1683 214.463 101.563C214.463 106.897 210.58 110.642 206.083 110.642ZM206.083 86.5776C197.868 86.5776 191.174 92.8774 191.174 101.563C191.174 110.191 197.868 116.548 206.083 116.548C214.295 116.548 220.989 110.191 220.989 101.563C220.989 92.8774 214.295 86.5776 206.083 86.5776ZM238.6 110.642C234.1 110.642 230.217 106.897 230.217 101.563C230.217 96.1683 234.1 92.4793 238.6 92.4793C243.101 92.4793 246.98 96.1683 246.98 101.563C246.98 106.897 243.101 110.642 238.6 110.642ZM238.6 86.5776C230.388 86.5776 223.695 92.8774 223.695 101.563C223.695 110.191 230.388 116.548 238.6 116.548C246.812 116.548 253.506 110.191 253.506 101.563C253.506 92.8774 246.812 86.5776 238.6 86.5776Z" fill="white"/>
</svg>
