<svg width="480" height="160" viewBox="0 0 480 160" fill="none" xmlns="http://www.w3.org/2000/svg">
<rect x="2" y="2" width="476" height="156" rx="22" fill="black"/>
<rect x="2" y="2" width="476" height="156" rx="22" stroke="#A6A6A6" stroke-width="4"/>
<path d="M98.818 83.0529C98.8666 79.3733 99.8677 75.7655 101.728 72.5651C103.589 69.3647 106.248 66.6758 109.459 64.7485C107.419 61.9043 104.728 59.5636 101.6 57.9124C98.4713 56.2612 94.9916 55.3449 91.4369 55.2363C83.8542 54.4592 76.5031 59.6661 72.639 59.6661C68.7003 59.6661 62.751 55.3134 56.3446 55.4421C52.2008 55.5728 48.1624 56.7493 44.6227 58.8568C41.0831 60.9643 38.163 63.9311 36.1469 67.468C27.4141 82.2295 33.928 103.924 42.2935 115.856C46.479 121.699 51.3706 128.226 57.7712 127.994C64.0345 127.741 66.3738 124.095 73.9341 124.095C81.4244 124.095 83.619 127.994 90.1495 127.847C96.8704 127.741 101.105 121.978 105.143 116.08C108.151 111.917 110.465 107.316 112 102.447C108.095 100.835 104.763 98.1357 102.419 94.6869C100.075 91.2381 98.8226 87.192 98.818 83.0529Z" fill="white"/>
<path d="M86.4832 47.3885C90.1477 43.0937 91.9531 37.5734 91.5159 32C85.9174 32.5741 80.7459 35.1864 77.0319 39.3164C75.216 41.3341 73.8252 43.6813 72.9391 46.224C72.0529 48.7667 71.6888 51.455 71.8674 54.1352C74.6677 54.1634 77.438 53.5708 79.9697 52.4021C82.5014 51.2335 84.7285 49.5193 86.4832 47.3885Z" fill="white"/>
<path d="M169.945 28.3477V40.4062H174.832V43.6055H169.945V60.1641H166.043V28.3477H169.945ZM146.355 52.3945V31.3711H161.227V34.5352H150.258V49.125C155.197 49.1074 159.117 48.8613 163.477 48.1055L163.934 51.4102C158.994 52.2539 154.723 52.3945 148.992 52.3945H146.355ZM205.172 44.0625V47.1914H192.902V53.0273H188.93V47.1914H176.133V44.0625H205.172ZM179.227 35.5547C179.209 31.5645 183.779 29.0508 190.617 29.0508C197.49 29.0508 202.008 31.5645 202.008 35.5547C202.008 39.5625 197.49 42.041 190.617 42.0234C183.779 42.041 179.209 39.5625 179.227 35.5547ZM179.684 59.4961V50.0742H183.621V56.2969H201.973V59.4961H179.684ZM183.445 35.5547C183.41 37.6641 186.258 38.8945 190.617 38.8945C195.012 38.8945 197.842 37.6641 197.824 35.5547C197.842 33.375 195.012 32.1445 190.617 32.1445C186.258 32.1445 183.41 33.375 183.445 35.5547ZM236.32 53.2031V56.4375H207.281V53.2031H219.797V48.0352H210.727V37.6289H229.008V33.6914H210.656V30.5273H232.875V40.7227H214.629V44.8359H233.613V48.0352H223.664V53.2031H236.32ZM264.199 43.2539V46.3828H241.91V31.125H263.953V34.2891H245.777V43.2539H264.199ZM238.395 56.0859V52.8516H267.434V56.0859H238.395ZM294.398 28.3477V41.0039H299.285V44.2383H294.398V60.1289H290.531V28.3477H294.398ZM269.332 36.3633V33.2344H276.855V28.8047H280.758V33.2344H288.07V36.3633H269.332ZM270.809 45.9258C270.773 41.5312 274.184 38.4199 278.824 38.4375C283.395 38.4199 286.787 41.5312 286.805 45.9258C286.787 50.3027 283.395 53.3789 278.824 53.3789C274.184 53.3789 270.773 50.3027 270.809 45.9258ZM274.535 45.9258C274.518 48.5098 276.328 50.1621 278.824 50.1445C281.268 50.1621 283.043 48.5098 283.078 45.9258C283.043 43.3418 281.268 41.6367 278.824 41.6367C276.328 41.6367 274.518 43.3418 274.535 45.9258ZM327.164 28.3477V60.1289H323.227V28.3477H327.164ZM300.832 51.375C309.164 47.4199 312.996 42.041 313.699 34.8164H302.449V31.7227H317.672C317.672 41.1797 313.998 49.2129 302.871 54.5039L300.832 51.375Z" fill="white"/>
<path d="M152.824 124H144.703L161.227 76.0117H170.156L186.645 124H178.207L173.953 110.711H157.113L152.824 124ZM165.727 84.3086H165.41L158.906 104.594H172.16L165.727 84.3086ZM209.057 124.527C204.241 124.527 200.585 122.242 198.616 118.832H198.335V136.34H190.53V86.8398H198.124V92.2891H198.405C200.444 88.7383 204.241 86.3477 209.233 86.3477C217.565 86.3477 223.507 92.6406 223.507 103.75V107.055C223.507 118.094 217.636 124.527 209.057 124.527ZM207.265 118.094C212.222 118.094 215.597 114.121 215.597 106.633V104.031C215.597 96.8242 212.432 92.7109 207.124 92.7109C201.675 92.7109 198.265 97.1406 198.265 103.996V106.633C198.265 113.664 201.71 118.094 207.265 118.094ZM248.732 124.527C243.916 124.527 240.26 122.242 238.291 118.832H238.01V136.34H230.205V86.8398H237.799V92.2891H238.08C240.119 88.7383 243.916 86.3477 248.908 86.3477C257.24 86.3477 263.181 92.6406 263.181 103.75V107.055C263.181 118.094 257.31 124.527 248.732 124.527ZM246.939 118.094C251.896 118.094 255.271 114.121 255.271 106.633V104.031C255.271 96.8242 252.107 92.7109 246.799 92.7109C241.349 92.7109 237.939 97.1406 237.939 103.996V106.633C237.939 113.664 241.385 118.094 246.939 118.094ZM279.355 110.676H287.16C287.511 114.824 291.167 118.375 297.953 118.375C304.175 118.375 307.867 115.457 307.867 110.922C307.867 107.266 305.406 105.297 300.273 104.066L292.398 102.098C286.21 100.656 280.656 96.9648 280.656 89.1602C280.656 79.9844 288.671 74.957 297.988 74.957C307.304 74.957 315.074 79.9844 315.25 88.9492H307.585C307.234 84.8711 304.105 81.4961 297.882 81.4961C292.398 81.4961 288.671 84.0977 288.671 88.5625C288.671 91.6914 290.851 93.9414 295.316 94.9609L303.156 96.8945C310.363 98.6523 315.847 102.062 315.847 110.219C315.847 119.641 308.218 124.949 297.355 124.949C283.996 124.949 279.531 117.145 279.355 110.676ZM325.358 86.8398V77.8047H333.022V86.8398H340.264V93.0977H333.022V112.926C333.022 116.969 334.534 118.094 338.717 118.094C339.385 118.094 340.018 118.094 340.475 118.023V124C339.842 124.105 338.366 124.246 336.784 124.246C327.748 124.246 325.252 121.012 325.252 113.559V93.0977H320.12V86.8398H325.358ZM361.341 86.207C372.029 86.207 377.829 93.7305 377.829 103.855V106.844C377.829 117.32 372.064 124.633 361.341 124.633C350.618 124.633 344.783 117.32 344.783 106.844V103.855C344.783 93.7656 350.654 86.207 361.341 86.207ZM361.341 92.4648C355.54 92.4648 352.658 97.2109 352.658 103.961V106.809C352.658 113.453 355.505 118.34 361.341 118.34C367.177 118.34 369.99 113.488 369.99 106.809V103.961C369.99 97.1758 367.142 92.4648 361.341 92.4648ZM384.422 124V86.8398H392.227V91.7266H392.508C393.457 89.4062 396.235 86.3125 401.402 86.3125C402.422 86.3125 403.301 86.3828 404.039 86.5234V93.4141C403.371 93.2383 402 93.1328 400.699 93.1328C394.442 93.1328 392.332 97 392.332 101.992V124H384.422ZM422.972 124.633C413.022 124.633 406.694 118.059 406.694 107.055V103.293C406.694 92.9219 412.882 86.207 422.655 86.207C432.569 86.207 438.546 93.168 438.546 103.645V107.195H414.394V108.074C414.394 114.332 417.769 118.48 423.077 118.48C427.05 118.48 429.757 116.512 430.706 113.312H438.124C436.999 119.324 432.147 124.633 422.972 124.633ZM414.394 101.746H430.917V101.676C430.917 96.4023 427.647 92.2539 422.69 92.2539C417.663 92.2539 414.394 96.4023 414.394 101.676V101.746Z" fill="white"/>
</svg>
