<svg width="160" height="42" viewBox="0 0 160 42" fill="none" xmlns="http://www.w3.org/2000/svg">
<g style="mix-blend-mode:multiply">
<path fill-rule="evenodd" clip-rule="evenodd" d="M76.2294 30.794C78.5297 32.2263 81.1339 32.9425 84.0418 32.9425C86.1685 32.9425 88.0999 32.5301 89.836 31.7055C90.9575 31.1728 91.934 30.5134 92.7657 29.7271V32.2768H102.531V0.0151726H92.7657V3.27857C91.9074 2.45813 90.9091 1.7776 89.7709 1.23697C88.0782 0.412323 86.1685 0 84.0418 0C81.1339 0 78.5297 0.71614 76.2294 2.14842C73.9725 3.5807 72.1712 5.53381 70.8258 8.00775C69.5237 10.4817 68.8727 13.3029 68.8727 16.4712C68.8727 19.6396 69.5237 22.4608 70.8258 24.9347C72.1712 27.4087 73.9725 29.3618 76.2294 30.794ZM91.2032 21.8748C89.9012 23.2637 88.1868 23.9582 86.06 23.9582C84.7146 23.9582 83.4993 23.6326 82.4142 22.9816C81.3292 22.3306 80.4828 21.4408 79.8752 20.3124C79.2675 19.1839 78.9637 17.9035 78.9637 16.4712C78.9637 14.9955 79.2675 13.6935 79.8752 12.565C80.5262 11.4365 81.3726 10.5685 82.4142 9.96086C83.4993 9.30983 84.7363 8.98431 86.1251 8.98431C87.514 8.98431 88.7293 9.30983 89.7709 9.96086C90.856 10.5685 91.6807 11.4365 92.2449 12.565C92.8525 13.6935 93.1563 14.9955 93.1563 16.4712C93.1563 18.6414 92.5053 20.4426 91.2032 21.8748ZM20.8983 14.2733V32.2768H30.8591V12.0598C30.8591 9.88969 30.3383 7.89318 29.2967 6.07027C28.255 4.24737 26.8227 2.79339 24.9998 1.70833C23.2203 0.579862 21.1587 0.0156304 18.815 0.0156304C16.3844 0.0156304 14.1926 0.53646 12.2395 1.57812C11.4003 2.01677 10.6408 2.53922 9.96087 3.14548V0.0151726H0V32.2768H9.96087V14.2733C9.96087 13.1883 10.1996 12.2334 10.677 11.4088C11.1544 10.5407 11.8055 9.88969 12.6301 9.45567C13.4548 8.97824 14.4096 8.73953 15.4947 8.73953C17.0572 8.73953 18.3375 9.26035 19.3358 10.302C20.3775 11.3003 20.8983 12.624 20.8983 14.2733ZM109.545 0.0151726V32.2768H119.506V13.8176C119.506 12.7326 119.723 11.8211 120.157 11.0833C120.634 10.3454 121.263 9.78119 122.045 9.39056C122.826 8.95654 123.716 8.73953 124.714 8.73953C126.146 8.73953 127.34 9.19525 128.295 10.1067C129.293 10.9748 129.792 12.2117 129.792 13.8176V32.2768H139.753V13.8176C139.753 12.7326 139.97 11.8211 140.404 11.0833C140.881 10.3454 141.511 9.78119 142.292 9.39056C143.073 8.95654 143.963 8.73953 144.961 8.73953C146.393 8.73953 147.587 9.19525 148.542 10.1067C149.54 10.9748 150.039 12.2117 150.039 13.8176V32.2768H160V12.7108C160 10.0633 159.436 7.80637 158.307 5.94007C157.222 4.03036 155.725 2.57638 153.815 1.57812C151.949 0.53646 149.8 0.0156304 147.37 0.0156304C144.896 0.0156304 142.661 0.558161 140.664 1.64322C139.368 2.33462 138.234 3.22678 137.263 4.31973C136.357 3.17647 135.256 2.2409 133.959 1.51302C132.222 0.514759 130.248 0.0156304 128.034 0.0156304C125.69 0.0156304 123.585 0.514759 121.719 1.51302C120.907 1.92832 120.169 2.42574 119.506 3.00526V0.0151726H109.545ZM51.1367 41.3333L55.2593 30.929L67.6667 0.0151774H56.1852L50.9785 17.7751L45.8148 0.0151774H34.3333L45.7859 29.3378L40.4619 41.3333H51.1367Z" fill="#1A1A1A"/>
</g>
</svg>
